<?xml version="1.0" encoding="UTF-8" standalone="no"?>
<svg
   xmlns:dc="http://purl.org/dc/elements/1.1/"
   xmlns:cc="http://creativecommons.org/ns#"
   xmlns:rdf="http://www.w3.org/1999/02/22-rdf-syntax-ns#"
   xmlns:svg="http://www.w3.org/2000/svg"
   xmlns="http://www.w3.org/2000/svg"
   viewBox="0 0 214.48 262.48001"
   height="262.48001"
   width="214.48"
   xml:space="preserve"
   id="svg2"
   version="1.1"><metadata
     id="metadata8"><rdf:RDF><cc:Work
         rdf:about=""><dc:format>image/svg+xml</dc:format><dc:type
           rdf:resource="http://purl.org/dc/dcmitype/StillImage" /></cc:Work></rdf:RDF></metadata><defs
     id="defs6" /><g
     transform="matrix(1.3333333,0,0,-1.3333333,0,262.48)"
     id="g10"><g
       transform="scale(0.1)"
       id="g12"><path
         id="path14"
         style="fill:#c61e25;fill-opacity:1;fill-rule:evenodd;stroke:none"
         d="M 157.152,478.031 811,61.3594 1349.46,420.34 1580.23,798.539 1561,1913.93" /><path
         id="path16"
         style="fill:#e7cd0f;fill-opacity:1;fill-rule:evenodd;stroke:none"
         d="M 219.16,451.879 1554.35,1887.32 788.777,1821.24 39.1602,1926.05 68.7813,638.711" /><path
         id="path18"
         style="fill:#000000;fill-opacity:1;fill-rule:evenodd;stroke:none"
         d="M 1531.14,847.57 C 1531.14,715.43 1396.71,471.629 1209.88,360 1023.04,248.34 838.48,157.199 802.027,107.07 765.57,157.199 565.063,234.66 435.191,314.41 305.316,394.148 72.9102,555.93 72.9102,847.57 c 0,291.65 0,1013.93 0,1013.93 0,0 357.7268,-70.63 729.1168,-70.63 371.393,0 729.113,70.63 729.113,70.63 0,0 0,-881.766 0,-1013.93 z m 38.74,1121.02 c 0,0 -385.07,-107.09 -767.853,-107.09 -382.789,0 -765.57,107.09 -765.57,107.09 H 0 c 0,0 0,-726.84 0,-1121.02 C 0,453.41 303.035,298.469 396.453,241.5 489.871,184.551 740.508,84.2891 802.027,0 c 54.688,82.0117 334.933,223.281 410.123,277.961 118.48,54.687 396.46,300.758 396.46,569.609 0,391.9 0,1121.02 0,1121.02 h -38.73" /><path
         id="path20"
         style="fill:#315926;fill-opacity:1;fill-rule:evenodd;stroke:none"
         d="m 648.824,1441.96 141.258,-107.09 141.27,104.81 179.998,-246.07 -68.35,-4.56 138.99,-184.56 -77.47,-6.834 148.1,-211.906 -366.835,2.289 -95.703,134.422 -88.852,-136.711 -369.117,2.289 159.492,205.059 -82.019,4.558 148.102,198.224 -88.864,4.56 180,241.52" /></g></g></svg>