<?xml version="1.0" standalone="no"?>
<!DOCTYPE svg PUBLIC "-//W3C//DTD SVG 20010904//EN"
 "http://www.w3.org/TR/2001/REC-SVG-20010904/DTD/svg10.dtd">
<svg version="1.0" xmlns="http://www.w3.org/2000/svg"
 width="64.000000pt" height="64.000000pt" viewBox="0 0 64.000000 64.000000"
 preserveAspectRatio="xMidYMid meet">
<metadata>
Created by potrace 1.11, written by Peter Selinger 2001-2013
</metadata>
<g transform="translate(0.000000,64.000000) scale(0.100000,-0.100000)"
fill="#000000" stroke="none">
<path d="M157 463 c-57 -77 -58 -78 -32 -81 14 -2 25 -6 25 -10 0 -4 -21 -34
-46 -67 -29 -39 -40 -61 -32 -63 36 -10 42 -13 32 -20 -5 -4 -31 -34 -56 -68
l-46 -60 129 -1 129 -1 26 44 c14 24 29 44 33 44 4 0 21 -20 38 -43 l30 -44
119 0 c116 -1 146 3 127 16 -5 3 -28 34 -51 68 l-42 62 26 3 26 3 -46 60 c-44
55 -45 60 -26 67 19 7 16 13 -37 87 -32 44 -62 80 -68 81 -5 0 -23 -11 -39
-25 -45 -39 -62 -40 -103 -6 -21 17 -42 31 -48 31 -6 0 -37 -35 -68 -77z"/>
</g>
</svg>
